Patient4_TMGait_0pt3_01_right_10_GRF.mot
version=1
nRows=71
nColumns=19
inDegrees=no
endheader
time	F1x	F1y	F1z	M1x	M1y	M1z	F2x	F2y	F2z	M2x	M2y	M2z	EC1x	EC1y	EC1z	EC2x	EC2y	EC2z
17.44	-1.3028	733.9739	57.7315	-239.7232	-53.251	663.6632	-10.4061	9.3179	0.19154	4.1225	3.0373	8.5827	-0.0592	0.0182	-0.0073	-0.0462	0.0165	0.9585
17.4594	0.669	743.2102	59.1487	-243.0939	-53.332	670.16	-7.4097	8.243	-0.06841	3.4961	2.3859	7.4839	-0.0592	0.0182	-0.0073	-0.0462	0.0165	0.9585
17.4787	2.4806	756.5166	60.9923	-247.7681	-53.7665	679.4744	-4.6703	6.9594	-0.19401	2.8384	1.6798	6.2447	-0.0592	0.0182	-0.0073	-0.0462	0.0165	0.9585
17.4981	4.0756	773.4222	63.158	-253.5527	-54.5072	691.2446	-2.4423	5.737	-0.23287	2.2548	1.0399	5.1018	-0.0592	0.0182	-0.0073	-0.0462	0.0165	0.9585
17.5174	5.4375	792.5946	65.4887	-259.971	-55.4427	704.4632	-0.8067	4.7261	-0.22459	1.7966	0.53067	4.1828	-0.0592	0.0182	-0.0073	-0.0462	0.0165	0.9585
17.5368	6.5639	812.0287	67.8087	-266.3281	-56.4357	717.6003	0.27667	3.9632	-0.1944	1.4684	0.16586	3.5125	-0.0592	0.0182	-0.0073	-0.0462	0.0165	0.9585
17.5561	7.4621	829.3526	69.9465	-271.8195	-57.3486	728.8239	0.90834	3.4089	-0.15571	1.2439	-0.070549	3.044	-0.0592	0.0182	-0.0073	-0.0462	0.0165	0.9585
17.5755	8.155	842.2722	71.7328	-275.6894	-58.0404	736.3338	1.2051	2.9711	-0.11302	1.0781	-0.20953	2.6823	-0.0592	0.0182	-0.0073	-0.0462	0.0165	0.9585
17.5949	8.7024	849.066	73.0033	-277.4005	-58.3633	738.7464	1.2763	2.5243	-0.066245	0.91463	-0.28656	2.3043	-0.0592	0.0182	-0.0073	-0.0462	0.0165	0.9585
17.6142	9.1941	848.9467	73.6275	-276.7508	-58.1853	735.3989	1.2149	1.929	-0.014545	0.69447	-0.33276	1.7739	-0.0592	0.0182	-0.0073	-0.0462	0.0165	0.9585
17.6336	9.7438	842.1924	73.5419	-273.9062	-57.4191	726.4716	1.0929	1.0508	0.043831	0.36285	-0.37239	0.96475	-0.0592	0.0182	-0.0073	-0.0462	0.0165	0.9585
17.6529	10.4921	830.0622	72.7723	-269.3566	-56.0403	712.9297	0.96466	-0.21387	0.11234	-0.12305	-0.42424	-0.21924	-0.0592	0.0182	-0.0073	-0.0462	0.0165	0.9585
17.6723	11.5826	814.5059	71.4252	-263.8047	-54.0818	696.2984	0.87273	-1.9088	0.1942	-0.78216	-0.50125	-1.8143	-0.0592	0.0182	-0.0073	-0.0462	0.0165	0.9585
17.6916	13.1375	797.7034	69.6691	-258.0062	-51.6317	678.2884	0.85185	-3.9686	0.28596	-1.5899	-0.60787	-3.7558	-0.0592	0.0182	-0.0073	-0.0462	0.0165	0.9585
17.711	15.2587	781.5936	67.7039	-252.6193	-48.8073	660.4199	0.92726	-6.1577	0.3735	-2.4541	-0.73763	-5.8165	-0.0592	0.0182	-0.0073	-0.0462	0.0165	0.9585
17.7304	18.0165	767.5171	65.7172	-248.0862	-45.7258	643.7385	1.1153	-7.9982	0.42885	-3.1872	-0.8685	-7.5315	-0.0592	0.0182	-0.0073	-0.0462	0.0165	0.9585
17.7497	21.4227	755.9764	63.8618	-244.556	-42.4982	628.6485	1.4229	-8.6901	0.41043	-3.4758	-0.96051	-8.1292	-0.0592	0.0182	-0.0073	-0.0462	0.0165	0.9585
17.7691	25.427	746.5827	62.2476	-241.8675	-39.228	614.8832	1.8429	-7.05	0.26015	-2.8551	-0.95203	-6.4775	-0.0592	0.0182	-0.0073	-0.0462	0.0165	0.9585
17.7884	29.8938	738.1669	60.9341	-239.5861	-36.015	601.6202	2.3417	-1.4897	-0.096333	-0.70106	-0.75317	-1.0645	-0.0592	0.0182	-0.0073	-0.0462	0.0165	0.9585
17.8078	34.5591	728.948	59.9236	-237.0663	-32.9618	587.6396	2.841	9.9124	-0.74622	3.7421	-0.24765	9.9301	-0.0592	0.0182	-0.0073	-0.0462	0.0165	0.9585
17.8271	39.0286	716.755	59.1536	-233.5369	-30.1752	571.4982	3.1995	29.1905	-1.7687	11.2767	0.69367	28.4223	-0.0592	0.0182	-0.0073	-0.0462	0.0165	0.9585
17.8465	42.8117	699.3378	58.4603	-228.2166	-27.73	551.7616	3.2004	58.0618	-3.2073	22.5835	2.1931	56.0179	-0.0592	0.0182	-0.0073	-0.0462	0.0165	0.9585
17.8659	45.3979	674.7289	57.5553	-220.4424	-25.6236	527.24	2.5036	97.2389	-5.0454	37.9553	4.3575	93.3475	-0.0592	0.0182	-0.0073	-0.0462	0.0165	0.9585
17.8852	46.37	641.5965	56.0715	-209.7779	-23.7632	497.1943	0.54742	145.5912	-7.2009	56.9665	7.307	139.2594	-0.0592	0.0182	-0.0073	-0.0462	0.0165	0.9585
17.9046	45.5228	599.69	53.6821	-196.1504	-22.0045	461.6118	-2.9376	199.9525	-9.73	78.3723	11.1815	190.6534	-0.0592	0.0182	-0.0073	-0.0462	0.0165	0.9585
17.9239	42.9742	550.2852	50.2601	-179.9905	-20.2277	421.4949	-7.5269	256.5312	-12.9987	100.6475	16.1501	243.8036	-0.0592	0.0182	-0.0073	-0.0462	0.0165	0.9585
17.9433	39.1687	496.1644	45.9666	-162.2245	-18.3963	378.8341	-12.503	313.2015	-17.0594	122.9259	21.9763	296.5729	-0.0592	0.0182	-0.0073	-0.0462	0.0165	0.9585
17.9626	34.7223	440.8844	41.1443	-144.0381	-16.5278	336.0999	-17.1829	369.1153	-21.6605	144.8649	28.1669	348.0963	-0.0592	0.0182	-0.0073	-0.0462	0.0165	0.9585
17.982	30.1891	387.7346	36.1535	-126.534	-14.657	295.5344	-21.0424	423.1911	-26.3602	166.0449	34.1196	397.352	-0.0592	0.0182	-0.0073	-0.0462	0.0165	0.9585
18.0014	25.9227	338.9914	31.3086	-110.4789	-12.8489	258.6486	-23.7447	473.7735	-30.7127	185.8187	39.3041	442.8379	-0.0592	0.0182	-0.0073	-0.0462	0.0165	0.9585
18.0207	22.0564	295.6987	26.8671	-96.2255	-11.2075	226.0772	-25.1632	519.0172	-34.4177	203.4556	43.3994	482.9291	-0.0592	0.0182	-0.0073	-0.0462	0.0165	0.9585
18.0401	18.5603	257.7812	22.9954	-83.7494	-9.8353	197.6551	-25.4136	557.5033	-37.3337	218.3858	46.3131	516.433	-0.0592	0.0182	-0.0073	-0.0462	0.0165	0.9585
18.0594	15.3518	224.3577	19.7441	-72.7553	-8.7804	172.6326	-24.7901	588.8577	-39.4431	230.4474	48.131	543.1246	-0.0592	0.0182	-0.0073	-0.0462	0.0165	0.9585
18.0788	12.3612	194.1621	17.0632	-62.8218	-8.0219	149.9892	-23.6178	613.9259	-40.8172	239.9583	49.0326	563.867	-0.0592	0.0182	-0.0073	-0.0462	0.0165	0.9585
18.0981	9.5424	165.9743	14.83	-53.5484	-7.4851	128.7528	-22.1365	634.3684	-41.6145	247.5581	49.248	580.2073	-0.0592	0.0182	-0.0073	-0.0462	0.0165	0.9585
18.1175	6.8775	138.9942	12.8861	-44.6803	-7.0662	108.2902	-20.4854	651.9991	-42.085	253.9463	49.0519	593.7868	-0.0592	0.0182	-0.0073	-0.0462	0.0165	0.9585
18.1369	4.3915	113.052	11.1025	-36.1732	-6.6738	88.4701	-18.7184	668.2531	-42.4801	259.6768	48.69	605.8873	-0.0592	0.0182	-0.0073	-0.0462	0.0165	0.9585
18.1562	2.1623	88.5383	9.4017	-28.1656	-6.2342	69.605	-16.8434	683.8495	-42.9569	265.0328	48.3118	617.1605	-0.0592	0.0182	-0.0073	-0.0462	0.0165	0.9585
18.1756	0.30576	66.13	7.7456	-20.8865	-5.6822	52.2356	-14.8527	698.7289	-43.5341	270.0049	47.9446	627.5915	-0.0592	0.0182	-0.0073	-0.0462	0.0165	0.9585
18.1949	-1.0739	46.509	6.138	-14.5587	-4.9829	36.9215	-12.7409	712.224	-44.1063	274.3572	47.5061	636.6584	-0.0592	0.0182	-0.0073	-0.0462	0.0165	0.9585
18.2143	-1.9165	30.1886	4.6084	-9.3399	-4.1402	24.1054	-10.543	723.3349	-44.5261	277.7241	46.89	643.5833	-0.0592	0.0182	-0.0073	-0.0462	0.0165	0.9585
18.2336	-2.2156	17.4339	3.2001	-5.2999	-3.1913	14.035	-8.3673	731.0911	-44.6796	279.7465	46.0456	647.6462	-0.0592	0.0182	-0.0073	-0.0462	0.0165	0.9585
18.253	-2.0796	8.2189	1.9836	-2.4114	-2.232	6.7216	-6.3849	734.9642	-44.5197	280.2276	44.9997	648.5249	-0.0592	0.0182	-0.0073	-0.0462	0.0165	0.9585
18.2724	-1.7153	2.187	1.0377	-0.54323	-1.3964	1.9105	-4.7955	735.1322	-44.0939	279.2332	43.8671	646.4976	-0.0592	0.0182	-0.0073	-0.0462	0.0165	0.9585
18.2917	-1.2828	-1.2838	0.37297	0.51353	-0.74934	-0.87448	-3.7879	732.5203	-43.5487	277.1104	42.836	642.451	-0.0592	0.0182	-0.0073	-0.0462	0.0165	0.9585
18.3111	-0.87912	-2.8867	-0.044676	0.98466	-0.29956	-2.1761	-3.5145	728.6182	-43.0797	274.4251	42.1256	637.7176	-0.0592	0.0182	-0.0073	-0.0462	0.0165	0.9585
18.3304	-0.55171	-3.2583	-0.268	1.0739	-0.023641	-2.4951	-4.0781	725.1906	-42.8561	271.8615	41.9216	633.8201	-0.0592	0.0182	-0.0073	-0.0462	0.0165	0.9585
18.3498	-0.3153	-2.9119	-0.35458	0.94458	0.11965	-2.2427	-5.4861	723.9979	-42.9701	270.1255	42.3157	632.2203	-0.0592	0.0182	-0.0073	-0.0462	0.0165	0.9585
18.3691	-0.16602	-2.2211	-0.35636	0.71386	0.17464	-1.7188	-7.6322	726.5771	-43.4218	269.8661	43.2866	634.1283	-0.0592	0.0182	-0.0073	-0.0462	0.0165	0.9585
18.3885	-0.088321	-1.4311	-0.31273	0.45766	0.1757	-1.1154	-10.3023	734.0552	-44.1252	271.5998	44.6992	640.3498	-0.0592	0.0182	-0.0073	-0.0462	0.0165	0.9585
18.4079	-0.060661	-0.68792	-0.25108	0.21921	0.14612	-0.54553	-13.1825	746.9788	-44.9213	275.6318	46.312	651.1526	-0.0592	0.0182	-0.0073	-0.0462	0.0165	0.9585
18.4272	-0.063266	-0.066505	-0.18867	0.019093	0.10127	-0.064626	-15.9195	765.1491	-45.6202	281.9731	47.8289	666.155	-0.0592	0.0182	-0.0073	-0.0462	0.0165	0.9585
18.4466	-0.076487	0.40711	-0.13388	-0.13622	0.052933	0.3086	-18.1905	787.5512	-46.0527	290.2945	48.9694	684.3047	-0.0592	0.0182	-0.0073	-0.0462	0.0165	0.9585
18.4659	-0.087005	0.74132	-0.088506	-0.24789	0.0076248	0.57623	-19.7302	812.414	-46.1052	299.9339	49.5108	703.9572	-0.0592	0.0182	-0.0073	-0.0462	0.0165	0.9585
18.4853	-0.094964	0.95219	-0.052567	-0.31829	-0.031135	0.74466	-20.3625	837.3754	-45.7492	309.9532	49.3308	723.0341	-0.0592	0.0182	-0.0073	-0.0462	0.0165	0.9585
18.5046	-0.10747	1.0482	-0.023634	-0.34941	-0.065969	0.81579	-20.0315	859.7573	-45.0385	319.2496	48.4197	739.2791	-0.0592	0.0182	-0.0073	-0.0462	0.0165	0.9585
18.524	-0.12906	1.0285	0.0015866	-0.34025	-0.10136	0.78342	-18.7918	876.9329	-44.0807	326.711	46.8589	750.5717	-0.0592	0.0182	-0.0073	-0.0462	0.0165	0.9585
18.5434	-0.15684	0.87954	0.026248	-0.28679	-0.13834	0.63228	-16.7856	886.7182	-43.0014	331.3855	44.793	755.2384	-0.0592	0.0182	-0.0073	-0.0462	0.0165	0.9585
18.5627	-0.18892	0.57611	0.051884	-0.18153	-0.17708	0.34083	-14.199	887.741	-41.9188	332.6424	42.3913	752.3208	-0.0592	0.0182	-0.0073	-0.0462	0.0165	0.9585
18.5821	-0.22639	0.084519	0.077572	-0.01409	-0.21533	-0.11894	-11.2115	879.6985	-40.9236	330.2869	39.8119	741.7484	-0.0592	0.0182	-0.0073	-0.0462	0.0165	0.9585
18.6014	-0.26619	-0.6269	0.096486	0.22472	-0.24632	-0.77132	-7.9786	863.4006	-40.0726	324.5838	37.1869	724.3459	-0.0592	0.0182	-0.0073	-0.0462	0.0165	0.9585
18.6208	-0.29964	-1.566	0.094215	0.53633	-0.2536	-1.6222	-4.6266	840.6264	-39.3935	316.2012	34.6208	701.6964	-0.0592	0.0182	-0.0073	-0.0462	0.0165	0.9585
18.6401	-0.3142	-2.6904	0.049024	0.90601	-0.21302	-2.6407	-1.2295	813.8471	-38.8947	306.0976	32.1837	675.8958	-0.0592	0.0182	-0.0073	-0.0462	0.0165	0.9585
18.6595	-0.29262	-3.8757	-0.066318	1.291	-0.093962	-3.7223	2.1831	785.8224	-38.5679	295.359	29.9093	649.2263	-0.0592	0.0182	-0.0073	-0.0462	0.0165	0.9585
18.6789	-0.20953	-4.8757	-0.28025	1.6066	0.13905	-4.651	5.5951	759.1768	-38.3811	285.0231	27.8029	623.8257	-0.0592	0.0182	-0.0073	-0.0462	0.0165	0.9585
18.6982	-0.033455	-5.2826	-0.61896	1.7126	0.52362	-5.061	8.9805	736.0271	-38.3029	275.9303	25.8662	601.3978	-0.0592	0.0182	-0.0073	-0.0462	0.0165	0.9585
18.7176	0.27091	-4.4878	-1.0979	1.4021	1.0876	-4.3947	12.2985	717.732	-38.318	268.6227	24.1107	583.0174	-0.0592	0.0182	-0.0073	-0.0462	0.0165	0.9585
18.7369	0.7338	-1.6659	-1.7097	0.39739	1.8372	-1.8919	15.4958	704.7838	-38.426	263.3024	22.5578	569.0542	-0.0592	0.0182	-0.0073	-0.0462	0.0165	0.9585
18.7563	1.3706	4.1905	-2.4108	-1.6355	2.7386	3.3788	18.5002	696.8076	-38.6347	259.8312	21.2327	559.1868	-0.0592	0.0182	-0.0073	-0.0462	0.0165	0.9585
18.7756	2.1618	14.1568	-3.0984	-5.0462	3.6851	12.417	21.2009	692.6406	-38.9564	257.7672	20.1714	552.49	-0.0592	0.0182	-0.0073	-0.0462	0.0165	0.9585
18.795	3.0252	29.1497	-3.5831	-10.1234	4.4657	26.0832	23.449	690.5438	-39.3859	256.4555	19.413	547.6131	-0.0592	0.0182	-0.0073	-0.0462	0.0165	0.9585
